<?xml version="1.0" encoding="UTF-8" standalone="no"?>
<!-- Uploaded to: SVG Repo, www.svgrepo.com, Generator: SVG Repo Mixer Tools -->

<svg
   width="40"
   height="35"
   viewBox="-0.5 0 1.25 1.09375"
   fill="none"
   version="1.1"
   id="svg2"
   xmlns="http://www.w3.org/2000/svg"
   xmlns:svg="http://www.w3.org/2000/svg">
  <defs
     id="defs2" />
  <path
     d="m 0.12500025,0.84134695 c 0.16263288,0 0.29446967,-0.13183775 0.29446967,-0.29447195 0,-0.16263254 -0.13183679,-0.29447195 -0.29446967,-0.29447195 -0.1626319,0 -0.29447016,0.13183941 -0.29447016,0.29447195 0,0.1626342 0.13183826,0.29447195 0.29447016,0.29447195 z"
     stroke="#0f0f0f"
     stroke-miterlimit="10"
     stroke-linecap="round"
     stroke-linejoin="round"
     id="path1"
     style="stroke:#444444;stroke-width:0.0764834;stroke-dasharray:none;stroke-opacity:1" />
  <path
     d="m 0.18924814,0.10248917 0.0578225,-0.06424823 c 0.0754908,0.03105363 0.0754908,0.03105363 0.1509825,0.06264274 l -0.004278,0.0861995 c -0.002673,0.0513984 0.0396197,0.0936953 0.091018,0.0910189 l 0.0861993,-0.004287 c 0.0310533,0.0754916 0.0310533,0.0754916 0.0626413,0.15098378 l -0.0642474,0.0578278 c -0.0380132,0.0342656 -0.0380132,0.0942309 0,0.12849685 l 0.0642478,0.0578233 c -0.0310533,0.0754916 -0.0310533,0.0754916 -0.0626413,0.15098377 l -0.0862032,-0.004287 c -0.0513983,-0.002672 -0.0936946,0.0396195 -0.091018,0.0910189 l 0.004278,0.0861995 C 0.32255845,1.0239196 0.32255845,1.0239196 0.24706688,1.0555091 l -0.0578186,-0.0642482 c -0.0342655,-0.0380141 -0.09423018,-0.0380141 -0.12849589,0 L 0.00292977,1.0555091 c -0.07549077,-0.031055 -0.07549175,-0.031055 -0.150983,-0.062643 l 0.004278,-0.0861994 c 0.002673,-0.0513984 -0.0396197,-0.0936953 -0.091018,-0.0910189 l -0.0861993,0.004287 c -0.0310533,-0.0754975 -0.0310533,-0.0754975 -0.0626413,-0.15098896 l 0.0642479,-0.0578233 c 0.0380132,-0.0342656 0.0380132,-0.0942309 0,-0.12849685 l -0.0642482,-0.0578243 c 0.0310534,-0.0754916 0.0310534,-0.0754916 0.0626413,-0.15098377 l 0.0861993,0.004287 c 0.0513983,0.002672 0.0936947,-0.0396195 0.091018,-0.0910189 l -0.004278,-0.0862005 C -0.07256266,0.06983219 -0.07256168,0.06983219 0.00292956,0.03824405 l 0.05782259,0.06424823 c 0.03426552,0.038014 0.09369466,0.038014 0.12849589,0 z"
     stroke="#0f0f0f"
     stroke-miterlimit="10"
     stroke-linecap="round"
     stroke-linejoin="round"
     id="path2"
     style="stroke:#444444;stroke-width:0.0764834;stroke-dasharray:none;stroke-opacity:1" />
</svg>
