<?xml version="1.0" encoding="UTF-8" standalone="no"?>
<!-- Created with Inkscape (http://www.inkscape.org/) -->

<svg
   width="131.80191mm"
   height="105.55206mm"
   viewBox="0 0 131.80191 105.55206"
   version="1.1"
   id="controller"
   xml:space="preserve"
   xmlns="http://www.w3.org/2000/svg"
   xmlns:svg="http://www.w3.org/2000/svg"><defs
     id="defs1" /><g
     id="layer1"
     transform="translate(-1.0698322,-126.49976)"><path
       d="m 124.961,208.74768 c 6.33879,4.97177 12.64659,3.4323 20.00519,-0.50665 1.24091,-0.66424 2.67988,-0.19443 3.24001,1.09691 l 5.62072,12.9582 c 0.64779,1.49342 2.09544,3.6562 3.37697,4.65837 9.22372,7.21308 21.17146,5.28649 22.64485,-8.91238 0.17364,-1.67332 -0.15364,-4.37224 -0.52959,-6.01276 l -9.07285,-39.59089 c -0.6883,-3.00351 -2.43788,-7.67453 -4.49105,-9.96481 -9.2591,-10.32839 -22.05716,-6.01777 -25.11159,-1.85875 -0.49925,0.6798 -1.33318,1.38501 -2.18405,1.38501 H 91.540801 c -0.850866,0 -1.684813,-0.70521 -2.184088,-1.38499 -1.543143,-2.10104 -5.573139,-4.24073 -10.377038,-4.51232 -4.705374,-0.26603 -10.153251,1.26035 -14.734757,6.37103 -2.053152,2.2903 -3.802737,6.96131 -4.491053,9.96482 l -9.07308,39.5909 c -0.37596,1.64052 -0.703243,4.33944 -0.529606,6.01276 1.473383,14.19887 13.421125,16.12546 22.64484,8.91239 1.281534,-1.00218 2.729192,-3.16496 3.376983,-4.65838 l 5.620789,-12.95821 c 0.560132,-1.29133 1.999116,-1.76114 3.240041,-1.09689 7.358647,3.93895 13.666758,5.47841 20.005608,0.50663 1.14147,-0.8953 3.13749,-1.7479 4.58908,-1.7479 h 10.74339 c 1.45159,0 3.44761,0.8526 4.58909,1.74791 z"
       style="fill:none;stroke:#000000;stroke-width:2;stroke-opacity:0.750611"
       id="path3"
       transform="translate(-48.029171)" /><circle
       style="fill:none;fill-opacity:1;stroke:#000000;stroke-width:1.25;stroke-dasharray:none;stroke-opacity:0.503725"
       id="path4"
       cx="47.295582"
       cy="198.625"
       r="8" /><circle
       style="fill:none;fill-opacity:1;stroke:#000000;stroke-width:1.25;stroke-dasharray:none;stroke-opacity:0.750611"
       id="left_stick"
       cx="47.170826"
       cy="198.5"
       r="4.5" /><circle
       style="fill:none;fill-opacity:1;stroke:#000000;stroke-width:1.25;stroke-dasharray:none;stroke-opacity:0.503725"
       id="path4-2"
       cx="86.645828"
       cy="198.625"
       r="8" /><circle
       style="fill:none;fill-opacity:1;stroke:#000000;stroke-width:1.25;stroke-dasharray:none;stroke-opacity:0.750611"
       id="right_stick"
       cx="86.521072"
       cy="198.5"
       r="4.5" /><circle
       style="fill:none;fill-opacity:1;stroke:#000000;stroke-width:1.25;stroke-dasharray:none;stroke-opacity:0.750611"
       id="button_a"
       cx="106.09583"
       cy="188.125"
       r="3.5" /><circle
       style="fill:none;fill-opacity:1;stroke:#000000;stroke-width:1.25;stroke-dasharray:none;stroke-opacity:0.750611"
       id="button_y"
       cx="106.09583"
       cy="171.625"
       r="3.5" /><circle
       style="fill:none;fill-opacity:1;stroke:#000000;stroke-width:1.25;stroke-dasharray:none;stroke-opacity:0.750611"
       id="button_x"
       cx="179.875"
       cy="-97.845825"
       r="3.5"
       transform="rotate(90)" /><circle
       style="fill:none;fill-opacity:1;stroke:#000000;stroke-width:1.25;stroke-dasharray:none;stroke-opacity:0.750611"
       id="button_b"
       cx="179.875"
       cy="-114.34583"
       r="3.5"
       transform="rotate(90)" /><path
       id="dpad_up"
       d="m 75.269974,169.01695 h 0.01219 a 2.4939039,2.4939039 45 0 1 2.493904,2.4939 v 5.0122 l -2.493904,2.4939 h -0.01219 l -2.493904,-2.4939 v -5.0122 a 2.4939039,2.4939039 135 0 1 2.493904,-2.4939 z"
       style="fill:none;fill-opacity:1;stroke:#000000;stroke-width:1.25;stroke-dasharray:none;stroke-opacity:0.750611"
       transform="translate(-46.430241,-2.39195)" /><path
       d="m 44.125,162.99976 v 5.01261 c 2e-6,1.37734 1.116561,2.4939 2.493905,2.4939 h 0.01188 c 1.377344,0 2.493903,-1.11656 2.493905,-2.4939 v -5.01261"
       style="fill:none;fill-opacity:1;stroke:#000000;stroke-width:1.25;stroke-opacity:0.750611"
       id="button_minus" /><path
       d="m 84.825,163 v 5.01261 c 2e-6,1.37734 1.116561,2.4939 2.493905,2.4939 h 0.01188 c 1.377344,0 2.493903,-1.11656 2.493905,-2.4939 V 163"
       style="fill:none;fill-opacity:1;stroke:#000000;stroke-width:1.25;stroke-opacity:0.750611"
       id="button_plus" /><path
       id="dpad_down"
       d="m 75.269974,169.01695 h 0.01219 l 2.493904,2.4939 v 5.0122 a 2.4939039,2.4939039 135 0 1 -2.493904,2.4939 h -0.01219 a 2.4939039,2.4939039 45 0 1 -2.493904,-2.4939 v -5.0122 z"
       style="fill:none;fill-opacity:1;stroke:#000000;stroke-width:1.25;stroke-dasharray:none;stroke-opacity:0.750611"
       transform="translate(-46.430241,14.10805)" /><path
       id="dpad_left"
       d="m 75.269974,169.01695 h 0.01219 a 2.4939039,2.4939039 45 0 1 2.493904,2.4939 v 5.0122 l -2.493904,2.4939 h -0.01219 l -2.493904,-2.4939 v -5.0122 a 2.4939039,2.4939039 135 0 1 2.493904,-2.4939 z"
       style="fill:none;fill-opacity:1;stroke:#000000;stroke-width:1.25;stroke-dasharray:none;stroke-opacity:0.750611"
       transform="rotate(-90,50.864975,204.2861)" /><path
       id="dpad_right"
       d="m 75.269974,169.01695 h 0.01219 l 2.493904,2.4939 v 5.0122 a 2.4939039,2.4939039 135 0 1 -2.493904,2.4939 h -0.01219 a 2.4939039,2.4939039 45 0 1 -2.493904,-2.4939 v -5.0122 z"
       style="fill:none;fill-opacity:1;stroke:#000000;stroke-width:1.25;stroke-dasharray:none;stroke-opacity:0.750611"
       transform="rotate(-90,59.114975,196.0361)" /><path
       id="left_shoulder"
       style="fill:none;fill-opacity:1;stroke:#000000;stroke-width:1;stroke-dasharray:none;stroke-opacity:0.750611"
       d="M 23.005101,146.90154 H 34.9369 a 2.3825705,2.3825705 45 0 1 2.382571,2.38257 2.3487176,2.3487176 135.83189 0 1 -2.382571,2.31437 l -11.9318,0 a 2.3825705,2.3825705 45 0 1 -2.38257,-2.38257 2.3487176,2.3487176 135.83189 0 1 2.382571,-2.31437 z" /><path
       id="right_shoulder"
       style="fill:none;stroke:#000000;stroke-width:1;stroke-dasharray:none;stroke-opacity:0.750611"
       d="M 23.005101,146.90154 H 34.9369 a 2.3825705,2.3825705 45 0 1 2.382571,2.38257 2.3487176,2.3487176 135.83189 0 1 -2.382571,2.31437 l -11.9318,0 a 2.3825705,2.3825705 45 0 1 -2.38257,-2.38257 2.3487176,2.3487176 135.83189 0 1 2.382571,-2.31437 z"
       transform="translate(75.997832)" /><path
       id="left_trigger"
       d="m 28.977135,127.30649 a 8.2019849,8.2019849 45.044013 0 1 8.195682,8.20828 v 5.81308 a 2.3826,2.3826 135 0 1 -2.3826,2.3826 H 23.151452 a 2.3826,2.3826 45 0 1 -2.3826,-2.3826 v -5.81308 a 8.2082831,8.2082831 135 0 1 8.208283,-8.20828 z"
       style="fill:none;fill-opacity:1;stroke:#000000;stroke-width:1;stroke-dasharray:none;stroke-opacity:0.750611"
       transform="translate(-0.1460198,-0.30673)" /><path
       id="right_trigger"
       d="m 28.977135,127.30649 a 8.2019849,8.2019849 45.044013 0 1 8.195682,8.20828 v 5.81308 a 2.3826,2.3826 135 0 1 -2.3826,2.3826 H 23.151452 a 2.3826,2.3826 45 0 1 -2.3826,-2.3826 v -5.81308 a 8.2082831,8.2082831 135 0 1 8.208283,-8.20828 z"
       style="fill:none;fill-opacity:1;stroke:#000000;stroke-width:1;stroke-dasharray:none;stroke-opacity:0.750611"
       transform="translate(75.85198,-0.30673)" /></g></svg>
